<svg xmlns="http://www.w3.org/2000/svg" viewBox="0 0 232.35 116.13"><defs><style>.cls-1{font-size:72px;font-family:BerlinSansFBDemi-Bold, Berlin Sans FB Demi;font-weight:700;}.cls-2{fill:#fff;stroke-miterlimit:10;}.cls-2,.cls-3{stroke:#000;}.cls-3{fill:none;stroke-linecap:round;stroke-linejoin:round;stroke-width:2px;}</style></defs><g id="Lag_2" data-name="Lag 2"><g id="Lag_1-2" data-name="Lag 1"><text class="cls-1" transform="translate(0 101.4)">MoanZ</text><path class="cls-2" d="M62.42.5H108.9c2,0,3.6,3.05,3.6,6.8V45.76c0,3.76-1.61,6.81-3.6,6.81h-4.22L93.59,65.31l3.72-12.74H62.42c-2,0-3.6-3-3.6-6.81V7.3C58.82,3.55,60.44.5,62.42.5Z"/><g id="line"><path class="cls-3" d="M92.72,38.55a15,15,0,0,1-14.18,0"/><path class="cls-3" d="M93.2,38.28l-.48.27"/><path class="cls-3" d="M70.6,26.57c0-.53-.08-1.06-.08-1.59a15.14,15.14,0,1,1,30.28,0c0,.33,0,.67,0,1"/><line class="cls-3" x1="77.11" y1="16.98" x2="81.71" y2="19.64"/><line class="cls-3" x1="94.22" y1="16.98" x2="89.61" y2="19.64"/><path class="cls-3" d="M81.71,29.64A11.56,11.56,0,0,1,86.22,29a10.57,10.57,0,0,1,4,.66"/><path class="cls-3" d="M76.78,23a4.54,4.54,0,0,0,5.92,0"/><path class="cls-3" d="M88.62,23a4.55,4.55,0,0,0,5.93,0"/><path class="cls-3" d="M82,26l-9,4.21s-2.51-2.92-4.87-.5A3,3,0,0,0,68,33.9h0l.05,0s-2.28,2.22-.2,4.32a2.88,2.88,0,0,0,4,.21s1.66,2.51,4-.14-.53-4.95-.53-4.95Z"/><path class="cls-3" d="M89.31,26l9,4.21s2.5-2.92,4.86-.5a3,3,0,0,1,.14,4.22h0l0,0s2.27,2.22.2,4.32a2.88,2.88,0,0,1-4,.21s-1.66,2.51-4-.14.53-4.95.53-4.95Z"/></g></g></g></svg>